<svg xmlns="http://www.w3.org/2000/svg" viewBox="0 0 1005 600"><rect width="1005" height="600" x="0" y="0" fill="#FFFFFF" id="backgorund"/><g id="viz"><g transform="translate(0,0)"><g transform="translate(50,20)"><g id="desaparecidos" fill="#9b9b9b"><rect x="0.9986595174262334" y="560" width="42.766125216842774" height="0"/><rect x="44.76344425169528" y="472.8888888888889" width="42.766125216842774" height="87.11111111111109"/><rect x="88.52822898596433" y="472.8888888888889" width="42.766125216842774" height="87.11111111111109"/><rect x="132.29301372023338" y="472.8888888888889" width="42.766125216842774" height="87.11111111111109"/><rect x="176.05779845450243" y="535.1111111111111" width="42.766125216842774" height="24.888888888888914"/><rect x="219.8225831887715" y="535.1111111111111" width="42.766125216842774" height="24.888888888888914"/><rect x="263.5873679230405" y="535.1111111111111" width="42.766125216842774" height="24.888888888888914"/><rect x="307.3521526573096" y="535.1111111111111" width="42.766125216842774" height="24.888888888888914"/><rect x="351.11693739157863" y="535.1111111111111" width="42.766125216842774" height="24.888888888888914"/><rect x="394.88172212584766" y="535.1111111111111" width="42.766125216842774" height="24.888888888888914"/><rect x="438.64650686011674" y="547.5555555555555" width="42.766125216842774" height="12.444444444444457"/><rect x="482.4112915943858" y="560" width="42.766125216842774" height="0"/><rect x="526.1760763286547" y="560" width="42.766125216842774" height="0"/><rect x="569.9408610629239" y="560" width="42.766125216842774" height="0"/><rect x="613.705645797193" y="560" width="42.766125216842774" height="0"/><rect x="657.470430531462" y="560" width="42.766125216842774" height="0"/><rect x="701.2352152657311" y="560" width="42.766125216842774" height="0"/></g><g id="muertos" fill="#d0021b"><rect x="0.9986595174262334" y="560" width="42.766125216842774" height="0"/><rect x="44.76344425169528" y="398.22222222222223" width="42.766125216842774" height="74.66666666666663"/><rect x="88.52822898596433" y="348.44444444444446" width="42.766125216842774" height="124.44444444444446"/><rect x="132.29301372023338" y="336" width="42.766125216842774" height="136.8888888888889"/><rect x="176.05779845450243" y="336" width="42.766125216842774" height="199.11111111111114"/><rect x="219.8225831887715" y="236.44444444444449" width="42.766125216842774" height="298.6666666666667"/><rect x="263.5873679230405" y="224" width="42.766125216842774" height="311.1111111111111"/><rect x="307.3521526573096" y="211.55555555555554" width="42.766125216842774" height="323.55555555555554"/><rect x="351.11693739157863" y="199.1111111111111" width="42.766125216842774" height="336"/><rect x="394.88172212584766" y="199.1111111111111" width="42.766125216842774" height="336"/><rect x="438.64650686011674" y="199.1111111111111" width="42.766125216842774" height="348.44444444444446"/><rect x="482.4112915943858" y="199.1111111111111" width="42.766125216842774" height="360.8888888888889"/><rect x="526.1760763286547" y="199.1111111111111" width="42.766125216842774" height="360.8888888888889"/><rect x="569.9408610629239" y="199.1111111111111" width="42.766125216842774" height="360.8888888888889"/><rect x="613.705645797193" y="199.1111111111111" width="42.766125216842774" height="360.8888888888889"/><rect x="657.470430531462" y="199.1111111111111" width="42.766125216842774" height="360.8888888888889"/><rect x="701.2352152657311" y="199.1111111111111" width="42.766125216842774" height="360.8888888888889"/></g><g id="sobrevivientes" fill="#4a90e2"><rect x="0.9986595174262334" y="0" width="42.766125216842774" height="560"/><rect x="44.76344425169528" y="0" width="42.766125216842774" height="398.22222222222223"/><rect x="88.52822898596433" y="0" width="42.766125216842774" height="348.44444444444446"/><rect x="132.29301372023338" y="0" width="42.766125216842774" height="336"/><rect x="176.05779845450243" y="0" width="42.766125216842774" height="336"/><rect x="219.8225831887715" y="0" width="42.766125216842774" height="236.44444444444446"/><rect x="263.5873679230405" y="0" width="42.766125216842774" height="224"/><rect x="307.3521526573096" y="0" width="42.766125216842774" height="211.55555555555554"/><rect x="351.11693739157863" y="0" width="42.766125216842774" height="199.11111111111114"/><rect x="394.88172212584766" y="0" width="42.766125216842774" height="199.11111111111114"/><rect x="438.64650686011674" y="0" width="42.766125216842774" height="199.11111111111114"/><rect x="482.4112915943858" y="0" width="42.766125216842774" height="199.11111111111114"/><rect x="526.1760763286547" y="0" width="42.766125216842774" height="199.11111111111114"/><rect x="569.9408610629239" y="0" width="42.766125216842774" height="199.11111111111114"/><rect x="613.705645797193" y="0" width="42.766125216842774" height="199.11111111111114"/><rect x="657.470430531462" y="0" width="42.766125216842774" height="199.11111111111114"/><rect x="701.2352152657311" y="0" width="42.766125216842774" height="199.11111111111114"/></g><g id="xAxis" transform="translate(0,560)" fill="none" font-size="10" font-family="sans-serif" text-anchor="middle"><path class="domain" stroke="currentColor" d="M0,0H745"/><g class="tick" opacity="1" transform="translate(22.38172212584762,0)"><line stroke="currentColor" y2="6"/><text fill="currentColor" y="9" dy="0.71em">0</text></g><g class="tick" opacity="1" transform="translate(66.14650686011667,0)"><line stroke="currentColor" y2="6"/><text fill="currentColor" y="9" dy="0.71em">1</text></g><g class="tick" opacity="1" transform="translate(109.91129159438572,0)"><line stroke="currentColor" y2="6"/><text fill="currentColor" y="9" dy="0.71em">2</text></g><g class="tick" opacity="1" transform="translate(153.67607632865477,0)"><line stroke="currentColor" y2="6"/><text fill="currentColor" y="9" dy="0.71em">9</text></g><g class="tick" opacity="1" transform="translate(197.44086106292383,0)"><line stroke="currentColor" y2="6"/><text fill="currentColor" y="9" dy="0.71em">12</text></g><g class="tick" opacity="1" transform="translate(241.2056457971929,0)"><line stroke="currentColor" y2="6"/><text fill="currentColor" y="9" dy="0.71em">17</text></g><g class="tick" opacity="1" transform="translate(284.9704305314619,0)"><line stroke="currentColor" y2="6"/><text fill="currentColor" y="9" dy="0.71em">34</text></g><g class="tick" opacity="1" transform="translate(328.735215265731,0)"><line stroke="currentColor" y2="6"/><text fill="currentColor" y="9" dy="0.71em">37</text></g><g class="tick" opacity="1" transform="translate(372.5,0)"><line stroke="currentColor" y2="6"/><text fill="currentColor" y="9" dy="0.71em">60</text></g><g class="tick" opacity="1" transform="translate(416.264784734269,0)"><line stroke="currentColor" y2="6"/><text fill="currentColor" y="9" dy="0.71em">61</text></g><g class="tick" opacity="1" transform="translate(460.0295694685381,0)"><line stroke="currentColor" y2="6"/><text fill="currentColor" y="9" dy="0.71em">62</text></g><g class="tick" opacity="1" transform="translate(503.79435420280714,0)"><line stroke="currentColor" y2="6"/><text fill="currentColor" y="9" dy="0.71em">63</text></g><g class="tick" opacity="1" transform="translate(547.5591389370761,0)"><line stroke="currentColor" y2="6"/><text fill="currentColor" y="9" dy="0.71em">64</text></g><g class="tick" opacity="1" transform="translate(591.3239236713453,0)"><line stroke="currentColor" y2="6"/><text fill="currentColor" y="9" dy="0.71em">69</text></g><g class="tick" opacity="1" transform="translate(635.0887084056144,0)"><line stroke="currentColor" y2="6"/><text fill="currentColor" y="9" dy="0.71em">70</text></g><g class="tick" opacity="1" transform="translate(678.8534931398833,0)"><line stroke="currentColor" y2="6"/><text fill="currentColor" y="9" dy="0.71em">71</text></g><g class="tick" opacity="1" transform="translate(722.6182778741525,0)"><line stroke="currentColor" y2="6"/><text fill="currentColor" y="9" dy="0.71em">72</text></g></g><g id="yAxis" fill="none" font-size="10" font-family="sans-serif" text-anchor="end"><path class="domain" stroke="currentColor" d="M0,560V0"/><g class="tick" opacity="1" transform="translate(0,560)"><line stroke="currentColor" x2="-6"/><text fill="currentColor" x="-9" dy="0.32em">0</text></g><g class="tick" opacity="1" transform="translate(0,497.77777777777777)"><line stroke="currentColor" x2="-6"/><text fill="currentColor" x="-9" dy="0.32em">5</text></g><g class="tick" opacity="1" transform="translate(0,435.55555555555554)"><line stroke="currentColor" x2="-6"/><text fill="currentColor" x="-9" dy="0.32em">10</text></g><g class="tick" opacity="1" transform="translate(0,373.33333333333337)"><line stroke="currentColor" x2="-6"/><text fill="currentColor" x="-9" dy="0.32em">15</text></g><g class="tick" opacity="1" transform="translate(0,311.11111111111114)"><line stroke="currentColor" x2="-6"/><text fill="currentColor" x="-9" dy="0.32em">20</text></g><g class="tick" opacity="1" transform="translate(0,248.88888888888889)"><line stroke="currentColor" x2="-6"/><text fill="currentColor" x="-9" dy="0.32em">25</text></g><g class="tick" opacity="1" transform="translate(0,186.66666666666669)"><line stroke="currentColor" x2="-6"/><text fill="currentColor" x="-9" dy="0.32em">30</text></g><g class="tick" opacity="1" transform="translate(0,124.44444444444444)"><line stroke="currentColor" x2="-6"/><text fill="currentColor" x="-9" dy="0.32em">35</text></g><g class="tick" opacity="1" transform="translate(0,62.22222222222225)"><line stroke="currentColor" x2="-6"/><text fill="currentColor" x="-9" dy="0.32em">40</text></g><g class="tick" opacity="1" transform="translate(0,0)"><line stroke="currentColor" x2="-6"/><text fill="currentColor" x="-9" dy="0.32em">45</text></g></g><text y="556" x="745" text-anchor="end" style="font-family: Arial, sans-serif; font-size: 12px; fill: rgb(123, 123, 123); font-weight: bold;">día</text></g><text x="4" y="4" style="font-family: Arial, sans-serif; font-size: 12px; fill: black; font-weight: bold; dominant-baseline: hanging;"/></g><g id="grid"><rect x="0" y="0" width="805" height="600" fill="none" stroke="#ccc"/></g></g><g id="legend" transform="translate(805,20)"><g transform="translate(5,0)"><g class="legendColor" transform="translate(0,0)"><g class="legendCells" transform="translate(0,16)"><g class="cell" transform="translate(0, 0)"><rect class="swatch" height="15" width="15" style="fill: rgb(155, 155, 155);"/><text class="label" transform="translate( 20, 12.5)" font-family="&quot;Arial&quot;, sans-serif" font-size="10px"><tspan x="0" dy="0em">desaparecidos</tspan></text></g><g class="cell" transform="translate(0, 21)"><rect class="swatch" height="15" width="15" style="fill: rgb(208, 2, 27);"/><text class="label" transform="translate( 20, 12.5)" font-family="&quot;Arial&quot;, sans-serif" font-size="10px"><tspan x="0" dy="0em">muertos</tspan></text></g><g class="cell" transform="translate(0, 42)"><rect class="swatch" height="15" width="15" style="fill: rgb(74, 144, 226);"/><text class="label" transform="translate( 20, 12.5)" font-family="&quot;Arial&quot;, sans-serif" font-size="10px"><tspan x="0" dy="0em">sobrevivientes</tspan></text></g></g><text class="legendTitle" font-family="&quot;Arial&quot;, sans-serif" font-size="12px" font-weight="bold"><tspan x="0" dy="0em">Colors</tspan></text></g></g></g></svg>